<?xml version="1.0" encoding="UTF-8"?>
<svg xmlns="http://www.w3.org/2000/svg" xmlns:xlink="http://www.w3.org/1999/xlink" version="1.1" viewBox="0 0 31.9 32">
  <defs>
    <style>
      .cls-1 {
        filter: url(#drop-shadow-2);
      }

      .cls-2 {
        filter: url(#drop-shadow-4);
      }

      .cls-3 {
        fill: url(#Gradiente_sem_nome_8);
      }

      .cls-4 {
        fill: #fff;
      }
    </style>
    <linearGradient id="Gradiente_sem_nome_8" data-name="Gradiente sem nome 8" x1="8.6" y1="-5.7" x2="29.7" y2="46.2" gradientUnits="userSpaceOnUse">
      <stop offset="0" stop-color="#5cff71"/>
      <stop offset="1" stop-color="#073f0c"/>
    </linearGradient>
    <filter id="drop-shadow-2" filterUnits="userSpaceOnUse">
      <feOffset dx="3" dy="3"/>
      <feGaussianBlur result="blur" stdDeviation="3"/>
      <feFlood flood-color="#000" flood-opacity=".2"/>
      <feComposite in2="blur" operator="in"/>
      <feComposite in="SourceGraphic"/>
    </filter>
    <filter id="drop-shadow-4" filterUnits="userSpaceOnUse">
      <feOffset dx="3" dy="3"/>
      <feGaussianBlur result="blur-2" stdDeviation="3"/>
      <feFlood flood-color="#000" flood-opacity=".2"/>
      <feComposite in2="blur-2" operator="in"/>
      <feComposite in="SourceGraphic"/>
    </filter>
  </defs>
  <!-- Generator: Adobe Illustrator 28.6.0, SVG Export Plug-In . SVG Version: 1.2.0 Build 709)  -->
  <g>
    <g id="Camada_1">
      <path class="cls-3" d="M4.2,12.8C4,6.5,8.5,1.2,14.3.5c6.2-.8,11.9,3.1,13.2,9.3.6,2.9,0,5.7-1.1,8.4-1.9,4.3-4.7,8-7.9,11.4-.5.6-1.1,1.1-1.6,1.6-.6.5-1.2.5-1.7,0-4.1-3.9-7.7-8.2-9.8-13.6-.7-1.8-1.1-3.6-1.1-4.9Z"/>
      <g class="cls-1">
        <path d="M4.4-15.7s0,0,0,0,0,0,0,0v-2.9s0,0,0,0,0,0,0,0h.5c0,0,0,0,.1,0,0,0,0,0,0,0l1.1,1.7v-1.7s0,0,0,0,0,0,0,0h.5s0,0,0,0,0,0,0,0v2.9s0,0,0,0,0,0,0,0h-.5s0,0-.1,0c0,0,0,0,0,0l-1.1-1.6v1.6s0,0,0,0,0,0,0,0h-.5Z"/>
        <path d="M7.3-15.7s0,0,0,0c0,0,0,0,0,0s0,0,0,0l1-2.8s0,0,0,0,0,0,.1,0h.7c0,0,0,0,.1,0,0,0,0,0,0,0l1,2.8s0,0,0,0c0,0,0,0,0,0,0,0,0,0,0,0h-.5s0,0,0,0,0,0,0,0l-.2-.4h-1.2l-.2.4s0,0,0,0c0,0,0,0-.1,0h-.5ZM8.4-16.9h.8l-.4-1.2-.4,1.2Z"/>
        <path d="M11.1-15.7s0,0,0,0,0,0,0,0v-2.3h-.8s0,0,0,0,0,0,0,0v-.5s0,0,0,0,0,0,0,0h2.4s0,0,0,0,0,0,0,0v.5s0,0,0,0,0,0,0,0h-.8v2.3s0,0,0,0c0,0,0,0,0,0h-.6Z"/>
        <path d="M14.4-15.7c-.3,0-.5,0-.7-.1s-.4-.2-.5-.4c-.1-.2-.2-.4-.2-.7v-1.8s0,0,0,0,0,0,0,0h.6s0,0,0,0,0,0,0,0v1.8c0,.2,0,.3.1.4,0,0,.2.1.4.1s.3,0,.4-.1c0,0,.1-.2.1-.4v-1.8s0,0,0,0c0,0,0,0,0,0h.6s0,0,0,0,0,0,0,0v1.8c0,.3,0,.5-.2.7-.1.2-.3.3-.5.4s-.4.1-.7.1Z"/>
        <path d="M16.4-15.7s0,0,0,0,0,0,0,0v-2.9s0,0,0,0,0,0,0,0h1.2c.4,0,.7,0,.9.3s.3.4.3.7,0,.4-.2.5-.2.3-.4.3l.6,1.1s0,0,0,0c0,0,0,0,0,0,0,0,0,0,0,0h-.6c0,0,0,0-.1,0,0,0,0,0,0,0l-.5-1h-.5v1s0,0,0,0,0,0,0,0h-.6ZM17.1-17.5h.5c.1,0,.2,0,.3-.1,0,0,.1-.2.1-.3s0-.2,0-.3c0,0-.2-.1-.3-.1h-.5v.8Z"/>
        <path d="M19.5-15.7s0,0,0,0c0,0,0,0,0,0v-2.9s0,0,0,0c0,0,0,0,0,0h2.1s0,0,0,0,0,0,0,0v.4s0,0,0,0,0,0,0,0h-1.4v.6h1.3s0,0,0,0c0,0,0,0,0,0v.4s0,0,0,0,0,0,0,0h-1.3v.6h1.4s0,0,0,0c0,0,0,0,0,0v.4s0,0,0,0,0,0,0,0h-2.1Z"/>
        <path d="M22.1-15.7s0,0,0,0,0,0,0,0v-.4s0,0,0-.1c0,0,0,0,0,0l1.4-1.7h-1.3s0,0,0,0,0,0,0,0v-.4s0,0,0,0,0,0,0,0h2.2s0,0,0,0c0,0,0,0,0,0v.4s0,0,0,0c0,0,0,0,0,0l-1.4,1.7h1.4s0,0,0,0c0,0,0,0,0,0v.4s0,0,0,0c0,0,0,0,0,0h-2.3Z"/>
        <path d="M24.9-15.7s0,0,0,0c0,0,0,0,0,0s0,0,0,0l1-2.8s0,0,0,0c0,0,0,0,.1,0h.7s0,0,.1,0c0,0,0,0,0,0l1,2.8s0,0,0,0c0,0,0,0,0,0,0,0,0,0,0,0h-.5s0,0,0,0c0,0,0,0,0,0l-.2-.4h-1.2l-.2.4s0,0,0,0,0,0-.1,0h-.5ZM25.9-16.9h.8l-.4-1.2-.4,1.2Z"/>
      </g>
      <g class="cls-2">
        <path class="cls-4" d="M7.2,19.6c-.8,0-1.4,0-1.9-.3-.5-.2-1-.4-1.3-.7-.3-.3-.6-.6-.8-.9-.2-.3-.3-.6-.3-.9,0,0,0-.2,0-.2,0,0,.1,0,.2,0h1.9c.1,0,.2,0,.3,0,0,0,.1.1.2.2,0,.2.2.3.3.5.1.1.3.2.5.2.2,0,.4,0,.7,0,.5,0,.9-.1,1.2-.3.3-.2.4-.5.4-.9s-.1-.7-.4-.9c-.3-.2-.6-.3-1.1-.3h-1.6c-.1,0-.2,0-.3-.1,0,0-.1-.2-.1-.3v-.8c0-.1,0-.2,0-.3,0,0,.1-.1.2-.2l2.4-2H3.8c0,0-.2,0-.3-.1,0,0-.1-.2-.1-.3v-1.4c0-.1,0-.2.1-.3,0,0,.2-.1.3-.1h6.7c.1,0,.2,0,.3.1,0,0,.1.2.1.3v1.2c0,.1,0,.2,0,.3,0,0-.1.1-.2.2l-2.2,2h.1c.6,0,1,.2,1.5.5.4.2.8.5,1,1,.3.4.4.9.4,1.6s-.2,1.2-.6,1.7c-.4.5-.9.8-1.5,1.1s-1.4.4-2.2.4Z"/>
        <path class="cls-4" d="M16.1,19.6c-.9,0-1.6-.2-2.2-.5s-1.2-.7-1.5-1.3-.5-1.2-.5-1.9,0-.6.1-.9c0-.3.2-.6.3-.8s.3-.5.4-.7c.1-.2.2-.4.3-.5l2.6-3.4s.1-.1.2-.2c0,0,.2-.1.3-.1h1.9c0,0,.2,0,.2,0,0,0,0,.1,0,.2s0,0,0,.1c0,0,0,0,0,0l-2,2.7c0,0,.1,0,.2,0,0,0,.2,0,.2,0,.4,0,.9.1,1.3.3.4.2.8.4,1.2.7.3.3.6.7.8,1.1.2.4.3.9.3,1.4s-.2,1.3-.5,1.8-.8,1-1.5,1.3c-.6.3-1.4.5-2.2.5ZM16.1,17.5c.3,0,.5,0,.8-.2.2-.1.4-.3.6-.5.1-.2.2-.5.2-.8s0-.6-.2-.8c-.1-.2-.3-.4-.6-.5-.2-.1-.5-.2-.8-.2s-.6,0-.8.2c-.2.1-.4.3-.6.5-.1.2-.2.5-.2.8s0,.6.2.8c.1.2.3.4.6.5.2.1.5.2.8.2Z"/>
        <path class="cls-4" d="M24.7,19.6c-.9,0-1.7-.1-2.3-.4s-1.1-.7-1.4-1.1-.5-1-.5-1.5c0,0,0-.2,0-.2,0,0,.1,0,.2,0h1.9c.1,0,.2,0,.3,0,0,0,.1.1.2.2,0,.2.2.4.3.6.1.1.3.3.5.3.2,0,.4.1.6.1s.5,0,.8-.2.4-.3.6-.5c.1-.2.2-.5.2-.8s0-.5-.2-.8-.3-.4-.5-.5c-.2-.1-.5-.2-.8-.2s-.4,0-.6,0-.3.1-.4.2c0,0-.2.1-.3.2,0,0-.2,0-.3,0h-1.9c0,0-.2,0-.2,0,0,0,0-.1,0-.2l.5-5.1c0-.1,0-.3.2-.3,0,0,.2-.1.3-.1h5.8c.1,0,.2,0,.3.1,0,0,.1.2.1.3v1.4c0,.1,0,.2-.1.3,0,0-.2.1-.3.1h-4.2l-.2,1.9c.2-.1.5-.3.7-.4.3,0,.7-.1,1.2-.1s.9,0,1.3.2c.4.2.8.4,1.1.7s.6.6.8,1,.3.9.3,1.4-.2,1.3-.5,1.8-.8,1-1.4,1.3-1.4.5-2.3.5Z"/>
      </g>
    </g>
  </g>
</svg>